<svg xmlns="http://www.w3.org/2000/svg" viewBox="0 0 1200 780" preserveAspectRatio="xMidYMid meet">
  <rect width="100%" height="100%" fill="#F4E9D7" />
  <g fill="none" stroke="#B58B2E" stroke-width="2" opacity="0.95">
    <!-- more detailed illustrative coastlines / routes (decorative) -->
    <path d="M180,600 C260,520 360,480 480,440 C600,400 740,360 880,320" />
    <path d="M120,480 C220,420 340,380 460,340 C580,300 700,260 860,220" />
    <path d="M260,680 C320,620 420,580 540,540 C660,500 780,460 920,420" />
  </g>
  <g fill="#1F8A70" font-family="Cairo, Arial, sans-serif" font-size="28">
    <text x="160" y="560">الأندلس</text>
    <text x="420" y="360">المشرق</text>
    <text x="760" y="240">المغرب</text>
    <text x="920" y="420">الحجاز</text>
  </g>
  <!-- decorative compass -->
  <g transform="translate(1050,650) scale(0.8)">
    <circle cx="0" cy="0" r="48" fill="#fff" stroke="#B58B2E" stroke-width="3" opacity="0.9"/>
    <path d="M0 -36 L6 0 L0 36 L-6 0 Z" fill="#1F8A70"/>
  </g>
</svg>